<svg xmlns="http://www.w3.org/2000/svg" width="640" height="360" viewBox="0 0 640 360">
<rect width="100%" height="100%" fill="#f7f4ee"/>
<text x="40" y="50" font-family="sans-serif" font-size="22" fill="#243044">Satu bintang = 2 anak</text>
<text x="40" y="120" font-family="sans-serif" font-size="22" fill="#243044">apel</text>
<text x="40" y="190" font-family="sans-serif" font-size="22" fill="#243044">jeruk</text>
<text x="40" y="260" font-family="sans-serif" font-size="22" fill="#243044">mangga</text>
<g fill="#e2b657">
<polygon points="160,112 166,124 179,125 169,134 172,147 160,140 148,147 151,134 141,125 154,124"/>
<polygon points="210,112 216,124 229,125 219,134 222,147 210,140 198,147 201,134 191,125 204,124"/>
<polygon points="260,112 266,124 279,125 269,134 272,147 260,140 248,147 251,134 241,125 254,124"/>
<polygon points="160,182 166,194 179,195 169,204 172,217 160,210 148,217 151,204 141,195 154,194"/>
<polygon points="210,182 216,194 229,195 219,204 222,217 210,210 198,217 201,204 191,195 204,194"/>
<polygon points="160,252 166,264 179,265 169,274 172,287 160,280 148,287 151,274 141,265 154,264"/>
<polygon points="210,252 216,264 229,265 219,274 222,287 210,280 198,287 201,274 191,265 204,264"/>
<polygon points="260,252 266,264 279,265 269,274 272,287 260,280 248,287 251,274 241,265 254,264"/>
<polygon points="310,252 316,264 329,265 319,274 322,287 310,280 298,287 301,274 291,265 304,264"/>
</g>
</svg>
